<?xml version="1.0" encoding="utf-8"?>
<!-- Generator: Adobe Illustrator 24.1.2, SVG Export Plug-In . SVG Version: 6.00 Build 0)  -->
<svg version="1.1" id="Layer_1" xmlns="http://www.w3.org/2000/svg" xmlns:xlink="http://www.w3.org/1999/xlink" x="0px" y="0px"
	 viewBox="0 0 595.28 841.89" style="enable-background:new 0 0 595.28 841.89;" xml:space="preserve">
<g>
	<g>
		<path d="M65.69,443.38c0.76-38.16-14.07-80.77,7.89-115.7c4.19-6.67,9.74-12.5,16.52-16.57c1.55-0.93,3.88-2.67,5.66-1.37
			c1.62,1.18,2.53,3.5,3.46,5.19c2.33,4.25,4.46,8.61,6.42,13.03c7.67,17.24,12.86,35.45,18.68,53.36
			c6.49,19.96,13.85,39.92,25.76,57.37c0.95,1.4,2.65,1.61,3.93,0.51c15.39-13.23,27.31-30.2,34.78-49.05
			c7.87-19.85,10.23-41.57,7.29-62.69c-1.72-12.32-5.31-24.27-10.55-35.55c-0.72,1.25-1.44,2.51-2.16,3.76
			c22.46-2.21,41.48,14.3,50.67,33.49c10.96,22.88,10.74,49.01,12.73,73.75c0.59,7.36,1.38,14.72,2.66,22
			c1.15,6.57,2.38,13.42,6.69,18.73c0.62,0.77,2.22,1.01,3.03,0.39c24.24-18.45,39.69-47.32,41.66-77.73
			c0.55-8.53-0.2-17-1.39-25.45c-1.28-9.17-3.46-18.51-3.56-27.79c-0.02-1.77,0.34-2.89,2.07-3.54c2.02-0.76,4.39-0.95,6.52-1.16
			c4.48-0.43,9-0.34,13.47,0.09c8.86,0.86,17.68,3.02,26.18,5.62c7.72,2.36,15.26,5.44,21.94,10.03
			c6.12,4.21,11.11,9.78,14.87,16.17c7.57,12.86,10.32,27.97,12.72,42.51c2.94,17.82,6.14,35.54,10.43,53.09
			c1.12,4.56,2.29,9.11,3.52,13.65c1.18,4.34,2.21,8.81,3.73,13.04c1.28,3.56,3.76,6.45,7.79,6.61c3.8,0.14,7.28-1.99,9.97-4.48
			c5.38-4.98,8.3-12.04,10.09-19.01c2.14-8.37,3.2-17.07,4.29-25.63c2.39-18.77,3.47-37.71,3.2-56.64
			c-0.07-4.76-0.22-9.52-0.45-14.28c-0.16-3.2-5.16-3.22-5,0c0.91,18.78,0.54,37.61-1.16,56.34c-0.86,9.51-2.07,18.99-3.62,28.42
			c-1.18,7.16-2.5,14.62-6.07,21.03c-1.7,3.06-4.02,6.13-7.06,7.97c-1.3,0.79-3.03,1.57-4.6,1.22c-1.83-0.41-2.43-2.38-2.91-3.95
			c-2.69-8.67-4.93-17.51-7.08-26.33c-4.22-17.32-7.36-34.79-10.26-52.37c-2.38-14.45-5.21-29.26-12.37-42.21
			c-3.6-6.5-8.35-12.39-14.2-17c-6.28-4.95-13.46-8.47-20.96-11.17c-7.98-2.88-16.34-5.02-24.69-6.48
			c-8.97-1.57-18.14-2.14-27.14-0.49c-3.53,0.65-6.95,2.19-7.93,5.97c-0.48,1.83-0.28,3.78-0.13,5.64c0.2,2.47,0.47,4.94,0.78,7.39
			c1.18,9.22,2.97,18.37,3.78,27.64c2.64,30.19-8.79,60.76-30.63,81.8c-2.64,2.54-5.42,4.95-8.33,7.17
			c1.01,0.13,2.02,0.26,3.03,0.39c-3.77-4.64-4.55-11.56-5.53-17.25c-1.15-6.72-1.84-13.52-2.38-20.31
			c-1.06-13.3-1.54-26.65-3.35-39.89c-3.19-23.29-11.19-47.02-30.72-61.58c-9.79-7.3-22.02-11.6-34.3-10.39
			c-1.97,0.19-3,1.95-2.16,3.76c8.97,19.29,12.58,40.9,10.6,62.07c-1.83,19.52-8.77,38.41-19.63,54.71
			c-6.07,9.11-13.4,17.32-21.69,24.45c1.31,0.17,2.62,0.34,3.93,0.51c-22.39-32.77-28.11-73.11-43.68-108.99
			c-2.01-4.64-4.19-9.2-6.58-13.66c-1.98-3.69-4.21-8.69-8.93-9.21c-4.38-0.49-8.83,3.04-12.13,5.55c-3.32,2.53-6.34,5.41-8.99,8.64
			c-11.08,13.45-16.07,31.02-17.28,48.16c-1.82,25.65,4.4,51.08,3.89,76.72C60.63,446.6,65.63,446.6,65.69,443.38L65.69,443.38z"/>
	</g>
</g>
</svg>
